# xmcd
#
# Track frame offsets:
#	150
#	12011
#	32109
#	46960
#	56696
#	70050
#	79631
#	92844
#	105563
#	118310
#	128126
#	136277
#	150258
#	162315
#	175838
#	186279
#	197370
#	214821
#	230228
#	246605
#
# Disc length: 3403 seconds
#
# Revision: 0
# Processed by: cddbd v1.5.1PL0 Copyright (c) Steve Scherf et al.
# Submitted via: audiograbber 1.83.01
#
DISCID=140d4914
DTITLE=Various Artist - Volani taboroveho ohne - CD2 - Vyznavaci ohnu
DYEAR=2001
DGENRE=Country
TTITLE0=Spojene osady Praha - Taborovy ohen
TTITLE1=Kamelot - Nashville
TTITLE2=T.E.Band - Karabina
TTITLE3=Hop Trop - Odval kamen
TTITLE4=Lehka Noha - Zamestnanci trati
TTITLE5=Jaroslav Samsonn Lenk - Strom
TTITLE6=Karabina - Mexiko
TTITLE7=Spojene osady Brno - Pampa
TTITLE8=Jan Vycital - He, chlape
TTITLE9=Paberky - Danio
TTITLE10=Rowers - Slani chlapi
TTITLE11=Wabi Danek - Na ceste
TTITLE12=Pacifik - Uniformy
TTITLE13=Nezmari - Neuhadnes
TTITLE14=Zlaty orel - Stara pacificka
TTITLE15=T.E.Band - Smith-Wesson Strory
TTITLE16=Kamelot - Bylo to tenkrat na jare
TTITLE17=Priboj - Podzim
TTITLE18=Stechovicky Trampgrass - Babicka Dallila
TTITLE19=Karabina and Rowers and T.E.Band - Fordka
EXTD=
EXTT0=
EXTT1=
EXTT2=
EXTT3=
EXTT4=
EXTT5=
EXTT6=
EXTT7=
EXTT8=
EXTT9=
EXTT10=
EXTT11=
EXTT12=
EXTT13=
EXTT14=
EXTT15=
EXTT16=
EXTT17=
EXTT18=
EXTT19=
PLAYORDER=
